<?xml version="1.0" encoding="utf-8"?>
<!-- Generator: Adobe Illustrator 16.0.4, SVG Export Plug-In . SVG Version: 6.00 Build 0)  -->
<!DOCTYPE svg PUBLIC "-//W3C//DTD SVG 1.1//EN" "http://www.w3.org/Graphics/SVG/1.1/DTD/svg11.dtd">
<svg version="1.1" id="Layer_1" xmlns="http://www.w3.org/2000/svg" xmlns:xlink="http://www.w3.org/1999/xlink" x="0px" y="0px"
	 width="285.218px" height="56.544px" viewBox="0 0 285.218 56.544" enable-background="new 0 0 285.218 56.544"
	 xml:space="preserve">
<g>
	<g>
		<path fill="#F87797" d="M69.271,2.041c-12.521,0-14.698,8.438-14.698,8.438c0.137,1.021,3.811,3.2,4.423,3.2
			c0.272,0,0.408-0.205,0.408-0.205c1.089-3.267,3.879-7.622,12.182-7.622c5.648,0,9.73,3.266,9.73,8.575
			c0,7.69-4.968,13.338-12.59,15.106c1.157-8.37,2.451-16.535,3.336-19.938c-0.681-0.749-2.383-1.429-3.606-1.429
			c-1.838,0-1.497,1.088-1.702,1.904c-0.747,2.382-2.177,10.685-3.606,20.008c-2.654,0-3.743-0.749-4.356-0.816
			c-1.564,0.953-1.904,3.13-0.544,3.674c1.09,0.477,2.723,0.681,4.288,0.886c-1.089,7.146-2.042,14.562-2.653,20.074
			c0.34,0.477,3.129,1.633,4.559,1.633c0.612,0,0.815-0.34,1.087-0.815c0.75-1.362,1.702-3.063,2.383-5.24
			c0.613-1.974-1.973-0.341-1.7-1.565l1.906-14.018c11.364-1.021,18.51-9.052,18.51-17.967C86.626,7.077,78.594,2.041,69.271,2.041z
			"/>
		<path fill="#F87797" d="M93.157,12.385c4.286,0,5.717-4.015,5.717-6.193c0-1.837-1.021-2.586-2.042-3.13
			c0.477-2.178-0.545-2.586-2.245-2.586c-3.403,0-4.288,5.716-4.288,7.622C90.299,11.16,92.068,12.385,93.157,12.385z"/>
		<path fill="#F87797" d="M144.668,52.942c-5.717-8.777-10.479-14.222-15.312-20.686c3.879-5.241,11.16-11.365,15.175-14.632
			c0.341-1.294-0.612-2.178-1.77-2.178c-4.898,0-12.859,8.711-15.991,12.521c0.681-3.948,2.723-17.286,4.082-24.771
			c0.204-1.089,0.41-1.633-0.68-2.246C129.017,0.271,127.519,0,126.227,0c-0.341,0-1.021,0.204-1.226,1.837
			c-1.36,9.663-4.558,28.104-4.83,38.518c-0.048,2.023-0.069,3.651-0.077,5c-0.728,1.486-1.786,2.893-3.188,2.893
			c-1.905,0-2.789-1.701-2.789-5.172c0-9.051,3.605-17.896,4.15-24.838c0.205-2.177-2.927-3.402-4.764-3.402
			c-0.612,0-1.226,0-1.497,0.612c-3.812,7.35-6.396,15.447-8.981,23.001h-0.273c0-6.736,1.905-13.065,2.722-19.599
			c0.203-1.702-1.36-1.837-2.177-1.837c-3.956,0-5.747,12.422-5.908,26.134c-0.703,3.097-2.188,6.666-5.115,6.666
			c-1.089,0-2.042-1.226-2.042-3.743c-0.067-5.307,3.063-18.509,5.104-25.994c0.611-2.315-5.104-2.519-4.969-2.519
			c-0.476,0-1.02,0.136-1.223,0.885c-1.362,4.831-4.561,20.075-4.561,27.22c0,5.376,1.974,8.166,5.853,8.166
			c3.397,0,5.758-1.589,7.331-3.723c0.496,2.426,1.533,3.927,3.488,3.927c1.429,0,2.313-1.021,2.313-1.021
			c-0.068-6.396,3.538-17.965,6.328-24.021h0.817c-0.682,3.47-1.771,10.548-1.771,13.472c0,5.514,1.294,10.413,5.921,10.413
			c2.189,0,3.984-1.11,5.291-2.591c0.005,0.142,0.01,0.28,0.016,0.414c0.135,1.495,0.272,1.769,1.563,2.244
			c0.409,0.137,2.043,0.272,3.062,0.477c0.478,0.068,1.021-0.477,0.954-2.178c-0.272-4.627-0.205-9.936,0.203-14.358
			c2.858,3.267,8.573,10.957,13.474,18.782c0.816,1.293,1.702,0.816,2.178,0.681c1.09-0.341,2.246-0.612,3.062-1.157
			C145.213,54.849,145.418,54.1,144.668,52.942z"/>
	</g>
	<g>
		<path fill="#95969D" d="M177.552,25.162h-10.564v8.361h10.068v1.564h-10.068v10.787h-2.09V23.582h12.654V25.162z"/>
		<path fill="#95969D" d="M198.397,45.875h-2.218l-0.064-0.319c-0.232-1.127-0.355-1.749-0.366-1.866l-0.511-5.522
			c-0.063-0.712-0.263-1.29-0.598-1.73c-0.335-0.441-0.828-0.766-1.478-0.975c-0.648-0.206-1.472-0.311-2.473-0.311h-3.366v10.724
			H185.2V23.582h6.672c2.074,0,3.67,0.469,4.786,1.405c1.116,0.936,1.677,2.286,1.677,4.053c0,0.988-0.159,1.819-0.471,2.489
			c-0.313,0.671-0.808,1.216-1.477,1.636c-0.67,0.42-1.521,0.727-2.553,0.917v0.064c0.924,0.267,1.624,0.563,2.098,0.894
			c0.474,0.329,0.822,0.795,1.046,1.396c0.224,0.601,0.383,1.481,0.479,2.641l0.063,0.846l0.096,1.244l0.399,2.745L198.397,45.875z
			 M196.115,29.104c0-0.787-0.198-1.474-0.598-2.059c-0.397-0.584-0.966-1.035-1.698-1.349c-0.734-0.313-1.613-0.471-2.634-0.471
			h-3.861v8.234h1.691c2.403,0,4.188-0.357,5.354-1.068C195.534,31.678,196.115,30.582,196.115,29.104z"/>
		<path fill="#95969D" d="M216.804,45.875h-8.601v-1.563h3.24V25.162h-3.24v-1.58h8.601v1.549h-3.272v19.181h3.272V45.875z"/>
		<path fill="#95969D" d="M241.13,34.401c0,1.947-0.23,3.705-0.687,5.273c-0.458,1.57-1.111,2.838-1.963,3.807
			c-1.394,1.596-3.51,2.394-6.352,2.394h-4.898V23.582h5.649c1.34,0,2.446,0.158,3.318,0.471c0.873,0.313,1.654,0.822,2.345,1.524
			c0.565,0.574,1.038,1.298,1.422,2.17c0.383,0.873,0.673,1.87,0.87,2.992C241.03,31.862,241.13,33.083,241.13,34.401z
			 M238.896,34.37c0-1.096-0.054-2.067-0.16-2.912c-0.107-0.847-0.269-1.596-0.487-2.25c-0.218-0.655-0.514-1.243-0.886-1.764
			c-0.563-0.809-1.211-1.391-1.946-1.748c-0.734-0.355-1.718-0.534-2.952-0.534h-3.144v19.149h2.456
			c1.681,0,3.048-0.345,4.103-1.037c1.054-0.691,1.818-1.764,2.296-3.215C238.656,38.606,238.896,36.71,238.896,34.37z"/>
		<path fill="#95969D" d="M263.777,45.875h-2.265l-2.058-6.238h-9.24l-1.993,6.238h-2.155l7.644-22.293h2.283L263.777,45.875z
			 M258.943,38.071l-4.084-12.43h-0.082l-4.053,12.43H258.943z"/>
		<path fill="#95969D" d="M285.218,23.582l-7.884,11.666v10.627h-2.09V35.248l-7.9-11.666h2.65l6.398,9.814l6.336-9.814H285.218z"/>
	</g>
	<g>
		<path fill="#95969D" d="M14.313,45.875h-1.962V25.609h-0.063L7.165,39.333L1.899,25.848H1.836v20.027H0V23.582h3.272l2.616,6.798
			c0.287,0.787,0.488,1.356,0.605,1.709c0.117,0.35,0.237,0.765,0.36,1.244c0.122,0.478,0.236,0.957,0.343,1.436h0.064
			c0.445-1.702,1.021-3.457,1.724-5.266l2.33-5.921h2.998V45.875z"/>
		<path fill="#95969D" d="M37.396,23.582l-7.884,11.666v10.627h-2.091V35.248l-7.898-11.666h2.649l6.398,9.814l6.335-9.814H37.396z"
			/>
	</g>
</g>
</svg>
